<?xml version="1.0" encoding="UTF-8"?>
<!-- Generated by Pixelmator Pro 3.5.7 -->
<svg width="218" height="218" viewBox="0 0 218 218" xmlns="http://www.w3.org/2000/svg">
    <g id="Group">
        <g id="g1"/>
    </g>
    <g id="AA-Logo-copy">
        <path id="A" fill="#ffffff" fill-rule="evenodd" stroke="none" d="M 118.087036 141.650024 L 82.06897 55.400024 L 70.062988 55.400024 L 70.062988 57.19397 C 74.340942 57.745972 76.272949 61.333984 74.064941 67.130005 L 45.636963 141.650024 C 43.843018 146.342041 41.083008 149.930054 35.838989 150.343994 L 35.838989 152 L 53.916992 152 L 53.916992 150.343994 C 48.811035 149.930054 46.327026 147.307983 48.396973 141.650024 L 57.090942 119.156006 L 99.18103 119.156006 L 108.703003 141.650024 C 110.772949 146.618042 108.28894 149.930054 103.182983 150.343994 L 103.182983 152 L 128.161011 152 L 128.161011 150.343994 C 122.916992 149.930054 120.019043 146.342041 118.087036 141.650024 Z M 58.057007 116.534058 L 77.100952 66.578003 L 77.239014 66.578003 L 98.077026 116.534058 Z"/>
        <path id="path1" fill="#ffeeee" fill-rule="evenodd" stroke="none" d="M 172.087036 141.650024 L 136.06897 55.400024 L 124.062988 55.400024 L 124.062988 57.19397 C 128.340942 57.745972 130.272949 61.333984 128.064941 67.130005 L 99.636963 141.650024 C 97.843018 146.342041 95.083008 149.930054 89.838989 150.343994 L 89.838989 152 L 107.916992 152 L 107.916992 150.343994 C 102.811035 149.930054 100.327026 147.307983 102.396973 141.650024 L 111.090942 119.156006 L 153.18103 119.156006 L 162.703003 141.650024 C 164.772949 146.618042 162.28894 149.930054 157.182983 150.343994 L 157.182983 152 L 182.161011 152 L 182.161011 150.343994 C 176.916992 149.930054 174.019043 146.342041 172.087036 141.650024 Z M 112.057007 116.534058 L 131.100952 66.578003 L 131.239014 66.578003 L 152.077026 116.534058 Z"/>
        <path id="Oval" fill="none" stroke="#ffffff" stroke-width="4" stroke-linecap="round" stroke-linejoin="round" d="M 213 109.5 C 213 51.78624 166.21376 5 108.5 5 C 50.786243 5 4 51.78624 4 109.5 C 4 167.21376 50.786243 214 108.5 214 C 166.21376 214 213 167.21376 213 109.5 Z"/>
    </g>
</svg>
